<svg width="19" height="20" viewBox="0 0 19 20" fill="none" xmlns="http://www.w3.org/2000/svg">
<path d="M2.72796 17.1326C1.10666 15.512 0.173236 13.3283 0.122203 11.0364C0.0711698 8.74461 0.906447 6.52149 2.454 4.83029C4.00155 3.1391 6.14201 2.11028 8.42935 1.95822C10.7167 1.80616 12.9745 2.54259 14.7323 4.01405L15.8047 2.94163L15.1444 2.28127C15.0573 2.19365 15.0085 2.07511 15.0087 1.95161C15.0089 1.82811 15.058 1.70971 15.1453 1.62235C15.2326 1.53499 15.351 1.48579 15.4745 1.48552C15.598 1.48525 15.7166 1.53393 15.8043 1.62091L17.7849 3.60155C17.8719 3.68917 17.9207 3.80771 17.9205 3.93121C17.9203 4.05472 17.8712 4.17311 17.7839 4.26047C17.6966 4.34783 17.5782 4.39703 17.4547 4.3973C17.3312 4.39757 17.2127 4.34888 17.125 4.26189L16.4646 3.60155L15.4153 4.65126C16.2453 5.48221 16.9025 6.46921 17.3492 7.55536C17.7959 8.64151 18.0232 9.80532 18.018 10.9797C18.0128 12.1541 17.7752 13.3159 17.3189 14.398C16.8627 15.4802 16.1967 16.4613 15.3595 17.2849C14.5222 18.1085 13.5303 18.7582 12.4408 19.1966C11.3513 19.6351 10.1858 19.8535 9.01144 19.8394C7.83711 19.8253 6.67718 19.5789 5.59852 19.1144C4.51987 18.6499 3.54383 17.9765 2.72663 17.1331L2.72796 17.1326ZM1.01076 10.8397C1.01076 12.4238 1.48053 13.9724 2.36065 15.2896C3.24077 16.6068 4.49171 17.6334 5.95529 18.2397C7.41888 18.8459 9.02935 19.0045 10.5831 18.6955C12.1368 18.3864 13.564 17.6236 14.6842 16.5034C15.8044 15.3832 16.5672 13.956 16.8763 12.4023C17.1853 10.8485 17.0267 9.23806 16.4205 7.77447C15.8143 6.31089 14.7876 5.05994 13.4704 4.17982C12.1532 3.2997 10.6047 2.82994 9.02048 2.82994C6.89617 2.82994 4.85887 3.67381 3.35676 5.17593C1.85465 6.67804 1.01076 8.71535 1.01076 10.8397ZM7.24054 10.8397C7.24034 10.4449 7.37138 10.0613 7.61304 9.74913C7.8547 9.43699 8.19327 9.21404 8.5755 9.11535V5.05486C8.5755 4.93685 8.62239 4.82367 8.70584 4.74022C8.78929 4.65677 8.90246 4.60988 9.02048 4.60988C9.1385 4.60988 9.25167 4.65677 9.33513 4.74022C9.41858 4.82367 9.46546 4.93685 9.46546 5.05486V9.11579C9.78778 9.19902 10.0803 9.37095 10.3098 9.61208C10.5393 9.85322 10.6966 10.1539 10.7638 10.4799C10.831 10.806 10.8054 11.1443 10.6899 11.4565C10.5745 11.7688 10.3738 12.0423 10.1106 12.2462C9.8475 12.4501 9.53245 12.5761 9.20128 12.6099C8.87012 12.6438 8.53609 12.584 8.23717 12.4375C7.93825 12.291 7.68641 12.0636 7.51024 11.7812C7.33407 11.4987 7.24063 11.1725 7.24054 10.8397ZM8.13051 10.8397C8.13051 11.0157 8.1827 11.1877 8.28049 11.3341C8.37828 11.4805 8.51728 11.5945 8.6799 11.6619C8.84252 11.7292 9.02148 11.7469 9.19411 11.7125C9.36675 11.6782 9.52531 11.5934 9.64977 11.469C9.77423 11.3445 9.859 11.1859 9.89334 11.0133C9.92768 10.8406 9.91007 10.6617 9.84271 10.4991C9.77535 10.3365 9.66128 10.1975 9.51492 10.0997C9.36857 10.0019 9.1965 9.94969 9.02048 9.94969C8.78445 9.94969 8.55809 10.0435 8.39119 10.2104C8.22429 10.3773 8.13051 10.6036 8.13051 10.8397ZM6.79556 1.05C6.67754 1.05 6.56436 1.00311 6.48091 0.919664C6.39746 0.836213 6.35057 0.723036 6.35057 0.605019C6.35057 0.487001 6.39746 0.373824 6.48091 0.290374C6.56436 0.206923 6.67754 0.160034 6.79556 0.160034H11.2454C11.3634 0.160034 11.4766 0.206923 11.56 0.290374C11.6435 0.373824 11.6904 0.487001 11.6904 0.605019C11.6904 0.723036 11.6435 0.836213 11.56 0.919664C11.4766 1.00311 11.3634 1.05 11.2454 1.05H6.79556Z" fill="white" stroke="white" stroke-width="0.6"/>
</svg>
